<svg width="21" height="22" viewBox="0 0 21 22" fill="#ffffff" xmlns="http://www.w3.org/2000/svg">
<path d="M5.83333 7.23047C5.189 7.23047 4.66667 7.7528 4.66667 8.39714C4.66667 9.04147 5.189 9.5638 5.83333 9.5638H15.1667C15.811 9.5638 16.3333 9.04147 16.3333 8.39714C16.3333 7.7528 15.811 7.23047 15.1667 7.23047H5.83333Z" fill="#D9D9D9"/>
<path d="M5.83333 7.23047C5.189 7.23047 4.66667 7.7528 4.66667 8.39714C4.66667 9.04147 5.189 9.5638 5.83333 9.5638H15.1667C15.811 9.5638 16.3333 9.04147 16.3333 8.39714C16.3333 7.7528 15.811 7.23047 15.1667 7.23047H5.83333Z" fill="url(#paint0_linear_11384_764)" fill-opacity="0.94"/>
<path d="M5.83333 7.23047C5.189 7.23047 4.66667 7.7528 4.66667 8.39714C4.66667 9.04147 5.189 9.5638 5.83333 9.5638H15.1667C15.811 9.5638 16.3333 9.04147 16.3333 8.39714C16.3333 7.7528 15.811 7.23047 15.1667 7.23047H5.83333Z" fill="url(#paint1_linear_11384_764)" fill-opacity="0.94"/>
<path fill-rule="evenodd" clip-rule="evenodd" d="M3.5 0.230469C1.567 0.230469 0 1.79747 0 3.73047V17.7305C0 19.6635 1.567 21.2305 3.5 21.2305H17.5C19.433 21.2305 21 19.6635 21 17.7305V3.73047C21 1.79747 19.433 0.230469 17.5 0.230469H3.5ZM2.33333 17.7305V4.89714H18.6667V17.7305C18.6667 18.3748 18.1443 18.8971 17.5 18.8971H3.5C2.85567 18.8971 2.33333 18.3748 2.33333 17.7305Z" fill="#D9D9D9"/>
<path fill-rule="evenodd" clip-rule="evenodd" d="M3.5 0.230469C1.567 0.230469 0 1.79747 0 3.73047V17.7305C0 19.6635 1.567 21.2305 3.5 21.2305H17.5C19.433 21.2305 21 19.6635 21 17.7305V3.73047C21 1.79747 19.433 0.230469 17.5 0.230469H3.5ZM2.33333 17.7305V4.89714H18.6667V17.7305C18.6667 18.3748 18.1443 18.8971 17.5 18.8971H3.5C2.85567 18.8971 2.33333 18.3748 2.33333 17.7305Z" fill="url(#paint2_linear_11384_764)" fill-opacity="0.94"/>
<path fill-rule="evenodd" clip-rule="evenodd" d="M3.5 0.230469C1.567 0.230469 0 1.79747 0 3.73047V17.7305C0 19.6635 1.567 21.2305 3.5 21.2305H17.5C19.433 21.2305 21 19.6635 21 17.7305V3.73047C21 1.79747 19.433 0.230469 17.5 0.230469H3.5ZM2.33333 17.7305V4.89714H18.6667V17.7305C18.6667 18.3748 18.1443 18.8971 17.5 18.8971H3.5C2.85567 18.8971 2.33333 18.3748 2.33333 17.7305Z" fill="url(#paint3_linear_11384_764)" fill-opacity="0.94"/>
<defs>
<linearGradient id="paint0_linear_11384_764" x1="1.18125" y1="10.7305" x2="21.1695" y2="10.7305" gradientUnits="userSpaceOnUse">
<stop stop-color="#ffffff"/>
<stop offset="1" stop-color="#ffffff"/>
</linearGradient>
<linearGradient id="paint1_linear_11384_764" x1="-11.9573" y1="-11.0358" x2="21.5546" y2="21.4822" gradientUnits="userSpaceOnUse">
<stop stop-color="#ffffff"/>
<stop offset="0.860578" stop-color="#ffffff"/>
</linearGradient>
<linearGradient id="paint2_linear_11384_764" x1="1.18125" y1="10.7305" x2="21.1695" y2="10.7305" gradientUnits="userSpaceOnUse">
<stop stop-color="#ffffff"/>
<stop offset="1" stop-color="#ffffff"/>
</linearGradient>
<linearGradient id="paint3_linear_11384_764" x1="-11.9573" y1="-11.0358" x2="21.5546" y2="21.4822" gradientUnits="userSpaceOnUse">
<stop stop-color="#ffffff"/>
<stop offset="0.860578" stop-color="#ffffff"/>
</linearGradient>
</defs>
</svg>
