<svg width="39" height="39" viewBox="0 0 39 39" fill="none" xmlns="http://www.w3.org/2000/svg">
<path opacity="0.3" fill-rule="evenodd" clip-rule="evenodd" d="M6.5 6.50001L19.2005 4.11866C19.3985 4.08155 19.6015 4.08155 19.7995 4.11866L32.5 6.50001V24.2964C32.5 27.378 30.9125 30.2422 28.2994 31.8754L19.9306 37.1059C19.6672 37.2705 19.3328 37.2705 19.0694 37.1059L10.7006 31.8754C8.08747 30.2422 6.5 27.378 6.5 24.2964L6.5 6.50001Z" fill="#ffffff"/>
<path fill-rule="evenodd" clip-rule="evenodd" d="M15.4375 15.0312C15.4375 13.9094 16.3469 13 17.4688 13H21.5312C22.6531 13 23.5625 13.9094 23.5625 15.0312V17.875H24.375C24.8237 17.875 25.1875 18.2388 25.1875 18.6875V25.1875C25.1875 25.6362 24.8237 26 24.375 26H14.625C14.1763 26 13.8125 25.6362 13.8125 25.1875V18.6875C13.8125 18.2388 14.1763 17.875 14.625 17.875H15.4375V15.0312ZM18.2812 14.625C17.6082 14.625 17.0625 15.1707 17.0625 15.8438V17.875H21.9375V15.8438C21.9375 15.1707 21.3918 14.625 20.7188 14.625H18.2812Z" fill="#ffffff"/>
</svg>
