<svg width="32" height="18" viewBox="0 0 32 18" fill="none" xmlns="http://www.w3.org/2000/svg">
<path fill-rule="evenodd" clip-rule="evenodd" d="M2 0C1.17157 0 0.5 0.671573 0.5 1.5V16.5C0.5 17.3284 1.17157 18 2 18H30.5C31.3284 18 32 17.3284 32 16.5V1.5C32 0.671573 31.3284 0 30.5 0H2ZM22.25 9.00006C22.25 12.3138 19.5637 15.0001 16.25 15.0001C12.9363 15.0001 10.25 12.3138 10.25 9.00006C10.25 5.68635 12.9363 3.00006 16.25 3.00006C19.5637 3.00006 22.25 5.68635 22.25 9.00006ZM16.2499 11.9999C17.9067 11.9999 19.2499 10.6568 19.2499 8.99994C19.2499 7.34308 17.9067 5.99994 16.2499 5.99994C14.593 5.99994 13.2499 7.34308 13.2499 8.99994C13.2499 10.6568 14.593 11.9999 16.2499 11.9999Z" fill="#ffffff"/>
</svg>
