<svg width="38" height="38" viewBox="0 0 38 38" fill="none" xmlns="http://www.w3.org/2000/svg">
	<path fill-rule="evenodd" clip-rule="evenodd" d="M11.8332 29.9699L9.92415 33.2766C9.71039 33.6468 9.83725 34.1203 10.2075 34.334L11.5483 35.1081C11.9185 35.3219 12.392 35.195 12.6057 34.8248L14.5082 31.5296C13.5484 31.1213 12.6507 30.5954 11.8332 29.9699ZM24.2088 31.5244L26.0872 34.7779C26.301 35.1481 26.7744 35.275 27.1446 35.0612L28.4854 34.2871C28.8557 34.0733 28.9825 33.5999 28.7688 33.2297L26.8821 29.9619C26.0653 30.5882 25.1681 31.1151 24.2088 31.5244Z" fill="#FFFFFF" />
	<path opacity="0.3" fill-rule="evenodd" clip-rule="evenodd" d="M9.79772 3.64088C10.2512 3.18742 10.9864 3.18742 11.4398 3.64088L13.082 5.283C13.5354 5.73646 13.5354 6.47166 13.082 6.92512L8.15559 11.8515C7.70213 12.305 6.96693 12.305 6.51347 11.8515L4.87134 10.2094C4.41788 9.75591 4.41789 9.02071 4.87135 8.56725L9.79772 3.64088ZM27.8327 4.21673C28.2862 3.76327 29.0214 3.76327 29.4748 4.21673L33.8253 8.56717C34.2787 9.02063 34.2787 9.75584 33.8253 10.2093L32.1831 11.8514C31.7297 12.3049 30.9945 12.3049 30.541 11.8514L26.1906 7.50098C25.7371 7.04752 25.7371 6.31231 26.1906 5.85885L27.8327 4.21673ZM19.352 32.5123C12.5116 32.5123 6.96635 26.967 6.96635 20.1266C6.96635 13.2862 12.5116 7.74094 19.352 7.74094C26.1924 7.74094 31.7377 13.2862 31.7377 20.1266C31.7377 26.967 26.1924 32.5123 19.352 32.5123Z" fill="#FFFFFF" />
	<path fill-rule="evenodd" clip-rule="evenodd" d="M18.5514 11.9687C18.5669 11.767 18.7351 11.6113 18.9373 11.6113H19.7768C19.9757 11.6113 20.1422 11.762 20.162 11.9599L20.9012 19.3524L26.1249 22.3374C26.2455 22.4063 26.32 22.5345 26.32 22.6734V23.4903C26.32 23.7455 26.0773 23.9308 25.8311 23.8637L18.1134 21.7589C17.9343 21.71 17.8151 21.5409 17.8293 21.3558L18.5514 11.9687Z" fill="#FFFFFF" />
</svg>
