<svg width="170" height="42" viewBox="0 0 170 42" fill="none" xmlns="http://www.w3.org/2000/svg">
<path d="M20.6132 41.2305C9.21489 41.2261 -0.0742524 31.9281 0.000447398 20.4727C0.0707531 9.14909 9.34231 -0.0829262 20.7758 0.000561833C32.0906 0.0840498 41.3182 9.35122 41.2303 20.7803C41.1425 32.0687 31.9368 41.2305 20.6132 41.2305ZM0.852904 20.6045C0.839721 31.4492 9.63233 40.2857 20.4418 40.378C31.3831 40.4747 40.2944 31.6293 40.3823 20.7715C40.4658 9.83457 31.6248 0.932112 20.7758 0.848624C9.8037 0.765136 0.84851 9.67638 0.852904 20.6045Z" fill="#4C4C4C"/>
<path d="M18.653 21.5055V28.0527C18.653 28.4965 18.508 28.6415 18.0554 28.6415H15.6474V28.3998C15.6474 23.8651 15.643 19.3304 15.6562 14.7957C15.6562 14.1278 15.5903 13.4775 15.397 12.8403C15.375 12.7612 15.3618 12.6821 15.3398 12.5942C15.4014 12.5898 15.4453 12.5811 15.4892 12.5811C17.4578 12.5854 19.422 12.5767 21.3861 12.5986C22.2869 12.6074 23.1657 12.7788 23.9918 13.1567C25.3584 13.7806 26.0922 14.866 26.2153 16.3424C26.3822 18.3593 25.2661 20.0818 23.3723 20.842C22.221 21.3034 21.0258 21.4879 19.7955 21.4835C19.4527 21.4835 19.11 21.4835 18.7672 21.4835C18.7277 21.4923 18.6882 21.4967 18.653 21.5055ZM18.6618 19.3436H18.8507C19.2418 19.3436 19.6329 19.3568 20.0284 19.3392C20.4458 19.3172 20.8676 19.2952 21.2763 19.2205C21.8915 19.1063 22.4231 18.8251 22.7615 18.267C22.9416 17.9682 23.0163 17.6387 23.0603 17.2959C23.1833 16.36 22.7966 15.5471 22.0233 15.1252C21.641 14.9143 21.2104 14.7957 20.771 14.7869C20.0987 14.7737 19.422 14.7825 18.7497 14.7781C18.7189 14.7781 18.6925 14.7825 18.6618 14.7869V19.3436Z" fill="#4C4C4C"/>
<path d="M27.7317 28.6327C27.6482 28.6371 27.6043 28.6459 27.556 28.6459C26.5234 28.6459 25.4907 28.6459 24.4581 28.6503C24.3571 28.6503 24.2999 28.6151 24.2472 28.5316C23.0696 26.6334 21.8876 24.7351 20.7056 22.8369C20.6836 22.8061 20.666 22.7709 20.6484 22.7358C21.145 22.6875 21.6371 22.6567 22.1249 22.582C22.6126 22.5073 23.0916 22.3799 23.6013 22.2744L27.7317 28.6327Z" fill="#4C4C4C"/>
<path d="M21.6172 34.7539L22.0742 34.688L22.351 36.5335L22.3774 36.5379C22.4213 36.3357 22.4609 36.1336 22.5048 35.9315C22.5839 35.5272 22.6674 35.1186 22.7421 34.7143C22.7597 34.6089 22.8168 34.5781 22.9134 34.5561C23.0277 34.5254 23.0585 34.5957 23.098 34.6704C23.3616 35.1537 23.6297 35.6371 23.8933 36.1204C23.9197 36.1732 23.9549 36.2127 24.0032 36.2435C23.9153 35.6503 23.8274 35.0615 23.7351 34.4463L24.0999 34.3848C24.2317 35.2328 24.3591 36.0677 24.4865 36.9158C24.3327 36.9377 24.157 36.9597 23.9856 36.9949C23.8933 37.0124 23.845 36.9773 23.8011 36.8982C23.5286 36.3753 23.2518 35.8524 22.975 35.3339C22.9706 35.3251 22.9574 35.3207 22.9618 35.3251C22.8519 35.8876 22.7333 36.4588 22.6278 37.03C22.6059 37.1574 22.5575 37.2234 22.4213 37.2321C22.2807 37.2409 22.1401 37.2717 21.9819 37.2937C21.8677 36.4412 21.7446 35.6063 21.6172 34.7539Z" fill="#4C4C4C"/>
<path d="M16.9775 5.05849C17.0346 5.36608 17.0961 5.67367 17.1533 5.98125C17.2104 6.28445 17.2631 6.58764 17.3202 6.90402L16.9555 6.96553C16.7929 6.12626 16.6348 5.30017 16.4766 4.46089C16.6479 4.42574 16.8457 4.3818 17.0478 4.35543C17.0786 4.35104 17.1313 4.41256 17.1576 4.4565C17.4652 4.97061 17.7728 5.48911 18.0672 5.98565C18.12 5.63851 18.1727 5.26941 18.2298 4.89591C18.265 4.67181 18.2957 4.44771 18.3397 4.228C18.3485 4.17967 18.3924 4.10936 18.4319 4.09618C18.5945 4.05224 18.7659 4.03027 18.9592 3.99512L19.4338 6.50415L18.9768 6.59203C18.8626 5.97246 18.7483 5.36608 18.6297 4.7553H18.6033C18.511 5.33971 18.4188 5.92413 18.3221 6.50855C18.3089 6.59643 18.3441 6.71946 18.1991 6.74583C18.0936 6.7678 18.0189 6.7634 17.953 6.64916C17.6674 6.15702 17.373 5.67367 17.0786 5.18592C17.0522 5.14198 17.0214 5.09364 16.9951 5.0497L16.9775 5.05849Z" fill="#4C4C4C"/>
<path d="M36.6545 25.6403C36.6545 26.5147 35.9559 27.0727 35.1078 26.8662C34.6069 26.7432 34.1894 26.4883 34.0444 25.9566C33.7896 25.0295 34.5805 24.2166 35.5252 24.4495C35.7845 24.5154 36.0394 24.6516 36.2591 24.8054C36.5359 24.9987 36.6545 25.2975 36.6545 25.6403ZM35.5209 26.418C35.9295 26.4224 36.1668 26.273 36.2678 25.9786C36.3689 25.6798 36.2766 25.4074 35.9866 25.2009C35.7054 24.9943 35.3627 24.8845 35.0111 24.8933C34.6948 24.9021 34.4794 25.0646 34.3828 25.3415C34.2905 25.6183 34.3696 25.8776 34.6201 26.0753C34.9013 26.295 35.2221 26.3917 35.5209 26.418Z" fill="#4C4C4C"/>
<path d="M36.5772 15.2879C36.5596 15.389 36.5552 15.4945 36.5245 15.5955C36.3619 16.1668 35.6061 16.615 34.9689 16.5183C34.3362 16.426 33.9012 15.8943 33.9144 15.2396C33.9187 15.0111 33.9847 14.8002 34.1253 14.6244C34.4944 14.1718 34.9865 13.9697 35.5578 14.0356C36.151 14.1015 36.5596 14.6376 36.5772 15.2879ZM35.4962 14.5014C35.1315 14.5058 34.6833 14.6947 34.4548 14.9408C34.2659 15.1473 34.2132 15.3802 34.323 15.6439C34.4329 15.9075 34.635 16.0349 34.9162 16.0437C35.3029 16.0525 35.6412 15.9251 35.94 15.6878C36.2037 15.4769 36.2784 15.2089 36.1729 14.9232C36.0631 14.6376 35.839 14.497 35.4962 14.5014Z" fill="#4C4C4C"/>
<path d="M22.4245 6.62266C21.6643 6.61827 21.1502 6.0734 21.2029 5.30883C21.2161 5.08912 21.2644 4.87381 21.3479 4.66729C21.5501 4.17075 22.0334 3.9115 22.5651 3.9906C23.1847 4.07848 23.5538 4.43001 23.6329 4.99245C23.6768 5.28246 23.6461 5.58126 23.5406 5.8537C23.356 6.35023 22.9518 6.62706 22.4245 6.62266ZM23.1715 5.27367C23.1319 5.06715 23.1188 4.91336 23.0748 4.76835C22.9913 4.49152 22.7936 4.33773 22.5036 4.31576C22.2268 4.29379 22.0158 4.41243 21.8884 4.65411C21.6907 5.01882 21.6467 5.44504 21.7742 5.84051C21.8577 6.10855 22.0422 6.26674 22.3234 6.2975C22.6222 6.32826 22.8551 6.20962 22.9694 5.94158C23.066 5.71308 23.1144 5.46701 23.1715 5.27367Z" fill="#4C4C4C"/>
<path d="M7.62803 25.8294C7.61485 25.9216 7.60606 26.0139 7.58409 26.1062C7.41711 26.7521 6.53829 27.2135 5.83523 27.0334C5.23324 26.8796 4.83338 26.137 5.00475 25.5042C5.22885 24.6781 6.50314 24.2739 7.16225 24.8231C7.44348 25.056 7.61924 25.4471 7.62803 25.8294ZM6.48117 25.0472C6.14722 25.0736 5.77811 25.201 5.4881 25.5042C5.29915 25.7019 5.26839 25.9436 5.36946 26.1941C5.47052 26.4445 5.66826 26.572 5.9363 26.5852C6.33177 26.6071 6.68769 26.4753 6.99528 26.2292C7.25453 26.0227 7.32923 25.7591 7.22817 25.4778C7.12271 25.1878 6.89861 25.0472 6.48117 25.0472Z" fill="#4C4C4C"/>
<path d="M7.29163 16.4735C7.28724 17.326 6.60615 17.8709 5.76248 17.6819C5.24398 17.5633 4.81336 17.3216 4.67714 16.7636C4.44865 15.832 5.22201 15.0542 6.16235 15.2696C6.40402 15.3267 6.62812 15.4277 6.83464 15.5684C7.14663 15.7705 7.29163 16.0913 7.29163 16.4735ZM5.83718 15.7309C5.35823 15.7222 5.09897 15.8847 5.01109 16.2099C4.91881 16.5395 5.06382 16.8295 5.42414 17.0184C5.70536 17.1678 6.00855 17.2425 6.33372 17.2074C6.65449 17.1722 6.85662 17.0096 6.93131 16.724C7.00601 16.4384 6.91374 16.1923 6.65009 16.0078C6.41281 15.8408 6.12719 15.7441 5.83718 15.7309Z" fill="#4C4C4C"/>
<path d="M18.4317 34.5342C19.4819 34.543 19.996 35.1669 19.873 35.9974C19.8598 36.0721 19.8466 36.1512 19.8291 36.2259C19.5962 37.1706 18.7393 37.3596 18.0451 37.0256C17.6891 36.8543 17.5046 36.5511 17.4475 36.1644C17.4035 35.8436 17.4387 35.5229 17.5793 35.2284C17.7902 34.7671 18.1505 34.5342 18.4317 34.5342ZM17.8913 35.9623L17.922 35.9754C17.9396 36.0941 17.9528 36.2171 17.9835 36.3314C18.0626 36.6302 18.2472 36.7971 18.5284 36.8279C18.8272 36.8631 19.0469 36.7532 19.1963 36.4764C19.3853 36.1161 19.4336 35.7338 19.3281 35.3383C19.2534 35.0659 19.0777 34.9033 18.7965 34.8637C18.5021 34.8198 18.2604 34.934 18.1373 35.1977C18.0231 35.4438 17.9704 35.7074 17.8913 35.9623Z" fill="#4C4C4C"/>
<path d="M12.7097 35.2243C12.4461 35.0573 12.1561 34.8903 11.8792 34.697C11.5497 34.4685 11.453 34.1873 11.5629 33.8885C11.6815 33.5721 11.932 33.4271 12.3318 33.4491C12.3582 33.4491 12.3846 33.4535 12.4285 33.4579V32.0342C12.5823 32.1309 12.7185 32.2055 12.8416 32.2978C12.8723 32.3198 12.8767 32.3989 12.8767 32.4516C12.8811 32.8031 12.8855 33.1591 12.8767 33.5106C12.8767 33.6336 12.9119 33.7127 13.0569 33.7523C13.2502 33.4403 13.4435 33.1239 13.6501 32.79L14.0499 33.0404L12.7097 35.2243ZM12.8723 34.0467C12.657 33.928 12.4768 33.7303 12.2308 33.8533C12.1297 33.9061 12.0243 34.0599 12.0199 34.1741C12.0067 34.4641 12.2835 34.53 12.4856 34.6706L12.8723 34.0467Z" fill="#4C4C4C"/>
<path d="M27.6445 32.9911C27.7895 32.8944 27.9082 32.8022 28.04 32.7319C28.0795 32.7099 28.1542 32.7231 28.2026 32.745C28.5321 32.89 28.8573 33.0351 29.1825 33.1932C29.3011 33.2504 29.3846 33.2372 29.4769 33.1317C29.2747 32.8241 29.0726 32.5165 28.8573 32.1914L29.2484 31.9277L30.6809 34.0765C30.3557 34.2698 30.013 34.4983 29.6482 34.6784C29.3978 34.8015 29.1517 34.7312 28.9584 34.5203C28.7475 34.2874 28.7387 34.0281 28.8573 33.7513C28.8793 33.6986 28.9144 33.6458 28.9628 33.5667L27.6445 32.9911ZM29.6702 33.4217C29.4813 33.5711 29.2308 33.6458 29.222 33.9227C29.2132 34.0721 29.3011 34.2127 29.4461 34.261C29.7098 34.3577 29.8723 34.1555 30.0789 34.0325L29.6702 33.4217Z" fill="#4C4C4C"/>
<path d="M10.2852 7.63238C10.5576 7.43904 10.8476 7.21933 11.1552 7.03039C11.4628 6.84144 11.7616 6.88099 11.9769 7.0963C12.2098 7.32918 12.2405 7.64117 12.0648 7.96194L12.0208 8.04982L13.361 8.56393C13.2248 8.66499 13.1018 8.76166 12.9743 8.84076C12.9348 8.86273 12.8601 8.84954 12.8074 8.83197C12.4778 8.70454 12.1483 8.57711 11.8275 8.4365C11.7088 8.38816 11.6166 8.37938 11.5243 8.5068C11.7396 8.80121 11.9593 9.10001 12.1878 9.41638C12.0604 9.50866 11.9373 9.60094 11.8055 9.69761L10.2852 7.63238ZM11.3046 8.2124C11.6122 8.04982 11.7616 7.87405 11.744 7.6939C11.7264 7.5401 11.6473 7.41707 11.4979 7.37313C11.2299 7.28964 11.0849 7.50934 10.8784 7.62798L11.3046 8.2124Z" fill="#4C4C4C"/>
<path d="M27.2383 8.02859L28.5345 5.80078C28.8421 5.99852 29.1893 6.20064 29.51 6.43793C29.7341 6.6049 29.8 6.85976 29.699 7.13659C29.5935 7.4266 29.3694 7.54963 29.075 7.576C29.0003 7.58479 28.9256 7.576 28.8333 7.576C28.8553 8.04177 28.8729 8.50316 28.8949 8.9953C28.7411 8.90741 28.6092 8.83271 28.4818 8.74923C28.4467 8.72726 28.4335 8.65695 28.4335 8.60422C28.4203 8.2439 28.4071 7.88798 28.4027 7.52766C28.4027 7.39584 28.3544 7.32114 28.2138 7.29038L27.6425 8.26148L27.2383 8.02859ZM28.3983 6.99158C28.6092 7.10144 28.785 7.28159 29.0399 7.18053C29.1805 7.1278 29.2684 6.98719 29.2552 6.83779C29.2332 6.55217 28.9783 6.48626 28.7718 6.35883L28.3983 6.99158Z" fill="#4C4C4C"/>
<path d="M8.99253 11.1788L9.7571 11.8159C9.65604 11.9389 9.56376 12.0532 9.4583 12.1762L7.47656 10.5416C7.76657 10.2472 7.9687 9.83416 8.37735 9.61446C8.65858 9.46506 8.92222 9.53536 9.15951 9.7331C9.40557 9.93962 9.49346 10.2121 9.37921 10.5065C9.28693 10.7393 9.12875 10.9459 8.99253 11.1788ZM8.0478 10.3834L8.71131 10.9371C8.84752 10.7393 9.07162 10.6075 8.98374 10.3351C8.93101 10.1593 8.78161 10.0319 8.60145 10.0055C8.31144 9.96159 8.21917 10.2164 8.0478 10.3834Z" fill="#4C4C4C"/>
<path d="M31.3477 29.9643L31.6684 29.6172L33.5579 31.3529C33.2723 31.6253 33.0394 31.9988 32.6571 32.2097C32.3935 32.3547 32.1166 32.3108 31.8749 32.1042C31.6289 31.8933 31.541 31.6121 31.6465 31.3177C31.6948 31.1947 31.7563 31.076 31.8354 30.9706C31.9057 30.8651 31.998 30.7772 32.099 30.663L31.3477 29.9643ZM32.3495 30.8959C32.1913 31.0848 31.9672 31.2122 32.0463 31.4847C32.1034 31.6736 32.2353 31.8011 32.4286 31.8318C32.7054 31.8758 32.8065 31.6341 32.9779 31.4803L32.3495 30.8959Z" fill="#4C4C4C"/>
<path d="M8.2818 28.2807C8.33013 28.1621 8.37408 28.0522 8.41802 27.9424C9.04637 28.1489 9.4726 28.8564 9.3276 29.4408C9.16941 30.0779 8.3521 30.6228 7.72375 30.5085C7.13494 30.4031 6.60764 29.744 6.67356 29.1683L7.03387 29.1903C7.05145 29.3046 7.05584 29.4144 7.08221 29.5199C7.20085 29.9681 7.57435 30.1746 8.01376 30.0252C8.38286 29.9022 8.67287 29.6693 8.85303 29.3177C9.05077 28.9267 8.90576 28.54 8.5059 28.3598C8.43559 28.3335 8.36089 28.3115 8.2818 28.2807Z" fill="#4C4C4C"/>
<path d="M33.1874 12.7617L33.0599 13.0956C32.4887 12.9726 32.0141 12.2564 32.1152 11.6763C32.2251 11.0436 33.0204 10.4416 33.6575 10.5207C34.2727 10.5954 34.8352 11.2501 34.7824 11.8477L34.4177 11.8301C34.4045 11.7291 34.3958 11.6324 34.3738 11.5357C34.2639 11.0656 33.8641 10.8459 33.4115 11.0128C33.0468 11.1491 32.7611 11.3819 32.5898 11.7423C32.4096 12.1289 32.5546 12.498 32.9413 12.6738C33.0204 12.7046 33.0951 12.7265 33.1874 12.7617Z" fill="#4C4C4C"/>
<path d="M30.4653 10.3313L30.1094 10.0106L31.8319 8.1123L32.1878 8.43307L30.4653 10.3313Z" fill="#4C4C4C"/>
<path d="M15.2049 7.65114L14.7699 7.84888L13.7109 5.51561L14.146 5.31348L15.2049 7.65114Z" fill="#4C4C4C"/>
<path d="M10.93 30.7061L11.2771 31.0312L9.5195 32.8987L9.16797 32.5692C9.75678 31.9496 10.3324 31.3344 10.93 30.7061Z" fill="#4C4C4C"/>
<path d="M25.8203 33.792L26.2641 33.6162C26.5849 34.4115 26.9013 35.1937 27.2264 35.989L26.7826 36.1692L25.8203 33.792Z" fill="#4C4C4C"/>
<path d="M36.6947 20.2045C36.6903 20.5033 36.4443 20.7406 36.1455 20.7406C35.8467 20.7362 35.6094 20.4902 35.6094 20.1914C35.6138 19.8926 35.8554 19.6553 36.1542 19.6553C36.4662 19.6553 36.6947 19.8926 36.6947 20.2045Z" fill="#4C4C4C"/>
<path d="M5.43549 21.3471C5.13669 21.3471 4.89062 21.1054 4.89062 20.8066C4.89062 20.5078 5.1323 20.2617 5.4311 20.2617C5.7299 20.2617 5.97597 20.5034 5.97597 20.8022C5.97597 21.101 5.73429 21.3471 5.43549 21.3471Z" fill="#4C4C4C"/>
<path d="M97.7692 28.83C97.7692 24.7566 97.7692 20.7228 97.7692 16.6319C97.7033 16.7769 97.655 16.878 97.6154 16.9791C96.2401 20.8151 94.8603 24.6468 93.4938 28.4828C93.3971 28.7509 93.2828 28.8607 92.9884 28.8607C91.6878 28.8739 91.6878 28.8827 91.2396 27.6655C89.8994 24.0096 88.5636 20.3537 87.2234 16.6978C87.2058 16.6451 87.1575 16.6012 87.197 16.6539C87.197 20.4328 87.197 24.3128 87.197 28.1928C87.197 28.7069 87.0696 28.8212 86.5423 28.8256C85.9579 28.83 85.3735 28.8256 84.7363 28.8256C84.7363 28.6059 84.7363 28.4257 84.7363 28.2499C84.7363 24.1546 84.7451 20.0593 84.7275 15.9596C84.7231 14.8391 84.6309 13.723 84.5781 12.5674C85.8304 12.5674 87.1838 12.5586 88.5372 12.585C88.6471 12.585 88.8009 12.7959 88.8536 12.9365C89.7412 15.3005 90.6288 17.6645 91.4857 20.0418C91.991 21.4523 92.4348 22.8847 92.8874 24.2425C92.9357 24.0052 92.9753 23.6361 93.0807 23.2934C93.4454 22.1202 93.8101 20.9425 94.2188 19.7825C95.0229 17.502 95.8666 15.2302 96.6795 12.9497C96.7805 12.6641 96.9124 12.5542 97.2244 12.563C98.38 12.585 99.5401 12.5718 100.74 12.5718C100.748 12.7739 100.766 12.9365 100.766 13.0947C100.766 18.0776 100.766 23.0649 100.766 28.0478C100.766 28.7641 100.7 28.8256 99.997 28.83C99.2588 28.83 98.525 28.83 97.7692 28.83Z" fill="#4C4C4C"/>
<path d="M154.383 20.934C154.422 19.1632 154.651 17.6868 155.341 16.3114C156.545 13.9122 158.526 12.6555 161.163 12.3787C162.354 12.2513 163.54 12.3303 164.696 12.6731C166.893 13.3234 168.431 14.7251 169.257 16.8431C170.202 19.273 170.25 21.7557 169.376 24.2164C168.246 27.3977 165.447 29.1905 161.87 29.0983C157.942 28.9972 155.134 26.4969 154.554 22.5686C154.466 21.9446 154.422 21.3163 154.383 20.934ZM157.696 20.6923C157.705 22.0237 157.894 23.4167 158.548 24.7085C159.304 26.2025 160.526 26.9979 162.2 26.9935C163.887 26.9891 165.184 26.2289 165.865 24.6734C167.029 22.0106 166.972 19.3214 165.772 16.6805C165.351 15.749 164.63 15.0679 163.641 14.7076C161.519 13.9342 159.392 14.813 158.434 16.8651C157.876 18.0471 157.7 19.3038 157.696 20.6923Z" fill="#4C4C4C"/>
<path d="M102.301 20.7061C102.332 18.7024 102.74 16.8129 103.957 15.1783C105.579 13.0076 107.846 12.2606 110.465 12.3441C111.559 12.3793 112.618 12.5858 113.616 13.0472C115.395 13.8601 116.599 15.2223 117.258 17.037C118.084 19.3132 118.142 21.6376 117.399 23.9446C116.327 27.2929 113.462 29.1999 109.775 29.1032C105.667 28.9978 103.043 26.3174 102.455 22.4154C102.371 21.8486 102.349 21.2773 102.301 20.7061ZM114.587 20.7325C114.569 19.3747 114.38 17.9554 113.686 16.6415C112.948 15.2442 111.792 14.4884 110.206 14.4533C108.571 14.4137 107.262 15.0685 106.541 16.5405C105.223 19.2253 105.276 21.9848 106.48 24.6916C107.165 26.2339 108.466 27.0072 110.162 26.9941C111.915 26.9765 113.154 26.1196 113.879 24.5246C114.411 23.3513 114.578 22.1078 114.587 20.7325Z" fill="#4C4C4C"/>
<path d="M52.8018 28.8563C52.8018 28.6015 52.8018 28.4257 52.8018 28.2456C52.8018 24.1502 52.8106 20.0549 52.793 15.9596C52.7887 14.8435 52.6964 13.723 52.6436 12.5806C52.5821 12.5937 52.6261 12.5762 52.67 12.5762C54.7484 12.5981 56.8312 12.5674 58.9052 12.6597C60.2542 12.7212 61.5197 13.1518 62.4645 14.1976C64.6747 16.6583 63.6113 20.7053 60.4695 21.8521C59.5072 22.2037 58.5142 22.3311 57.4991 22.3223C56.9762 22.3179 56.4533 22.3223 55.8733 22.3223C55.8733 22.5332 55.8733 22.6958 55.8733 22.854C55.8733 24.6292 55.8733 26.4088 55.8733 28.184C55.8733 28.7377 55.7635 28.8519 55.2186 28.8563C54.4364 28.8607 53.6543 28.8563 52.8018 28.8563ZM55.9348 14.7513C55.9348 16.5968 55.9348 18.3588 55.9348 20.1384C56.6774 20.1384 57.3893 20.1868 58.0879 20.1252C59.1074 20.0418 59.8236 19.4925 60.1444 18.4994C60.3773 17.7788 60.3685 17.0494 60.1356 16.3287C59.8895 15.5642 59.3754 15.0237 58.5933 14.9094C57.7276 14.782 56.84 14.7996 55.9348 14.7513Z" fill="#4C4C4C"/>
<path d="M125.511 21.6017C125.511 21.8126 125.511 21.9752 125.511 22.1334C125.511 24.1502 125.511 26.1671 125.511 28.184C125.511 28.7377 125.401 28.8519 124.856 28.8563C124.074 28.8607 123.292 28.8563 122.444 28.8563C122.444 28.6542 122.444 28.4784 122.444 28.3027C122.444 24.1942 122.452 20.0813 122.435 15.9728C122.43 14.8567 122.342 13.7362 122.29 12.5806C122.228 12.6025 122.268 12.5762 122.307 12.5762C124.522 12.5981 126.737 12.6025 128.947 12.6553C129.435 12.6684 129.931 12.8047 130.397 12.9585C132.049 13.4989 132.989 14.6458 133.178 16.3815C133.38 18.2534 132.532 19.6199 131.012 20.5866C129.768 21.3776 128.349 21.5797 126.899 21.6017C126.455 21.6061 126.007 21.6017 125.511 21.6017ZM125.528 19.4969C126.49 19.4134 127.426 19.4178 128.327 19.2332C129.474 19.0004 129.997 18.1655 129.962 16.9307C129.935 15.9157 129.298 15.1028 128.226 14.927C127.347 14.7864 126.442 14.8128 125.528 14.7644C125.528 16.3595 125.528 17.8579 125.528 19.4969Z" fill="#4C4C4C"/>
<path d="M68.653 21.5885C68.653 21.8433 68.653 22.0191 68.653 22.1949C68.653 24.1502 68.653 26.11 68.653 28.0654C68.653 28.7948 68.5871 28.8563 67.8445 28.8563C67.1238 28.8563 66.4032 28.8563 65.6167 28.8563C65.6167 28.641 65.6167 28.4653 65.6167 28.2939C65.6167 24.1986 65.6167 20.1033 65.6167 16.008C65.6167 14.8699 65.7133 13.7186 65.2695 12.6333C65.3398 12.5981 65.3662 12.5762 65.3926 12.5762C67.638 12.5981 69.8833 12.5806 72.1243 12.6597C73.1877 12.6948 74.1984 13.0463 75.0332 13.7582C76.8524 15.3181 76.8216 18.2402 74.9805 19.9671C73.7545 21.1183 72.2298 21.4611 70.6259 21.5797C69.9976 21.6236 69.3604 21.5885 68.653 21.5885ZM68.6706 19.409C69.3824 19.409 70.0415 19.4266 70.7006 19.4002C70.9819 19.3914 71.2675 19.3167 71.5399 19.2376C72.5725 18.93 73.1174 18.1699 73.1218 17.045C73.1262 16.0299 72.5945 15.2038 71.5707 14.9929C70.6347 14.7996 69.6548 14.8172 68.6706 14.7425C68.6706 16.3727 68.6706 17.8711 68.6706 19.409Z" fill="#4C4C4C"/>
<path d="M152.339 25.3982C152.418 25.5125 152.497 25.6179 152.572 25.7322C152.946 26.2946 153.319 26.8571 153.754 27.5118C153.091 27.8457 152.475 28.2148 151.816 28.4785C149.663 29.3397 147.462 29.3749 145.278 28.6147C143.428 27.9732 142.118 26.6857 141.372 24.8929C140.299 22.318 140.198 19.6815 141.169 17.0538C142.246 14.1493 144.781 12.3741 147.879 12.273C149.452 12.2203 150.977 12.4444 152.418 13.0903C152.84 13.2793 153.227 13.5385 153.671 13.7934C153.099 14.5272 152.576 15.1951 152.036 15.8894C151.166 15.0325 150.129 14.5843 148.96 14.4613C146.855 14.2372 145.221 15.1907 144.465 17.1769C143.494 19.743 143.617 22.296 144.944 24.7171C146.231 27.068 148.692 27.7007 151.008 26.3386C151.465 26.0793 151.869 25.7366 152.339 25.3982Z" fill="#4C4C4C"/>
<path d="M135.604 28.8617C135.604 28.5981 135.604 28.4047 135.604 28.2114C135.604 24.16 135.618 20.113 135.596 16.0617C135.591 14.9148 135.495 13.7636 135.438 12.5947C136.426 12.5947 137.533 12.5947 138.698 12.5947C138.698 12.7793 138.698 12.9375 138.698 13.1C138.698 18.0698 138.698 23.0351 138.698 28.0049C138.698 28.7694 138.606 28.8573 137.841 28.8617C137.125 28.8617 136.404 28.8617 135.604 28.8617Z" fill="#4C4C4C"/>
<path d="M78.7471 28.8568C78.7471 28.6064 78.7471 28.4262 78.7471 28.2504C78.7471 24.1595 78.7558 20.0642 78.7383 15.9733C78.7339 14.8572 78.646 13.7367 78.5977 12.5986C79.5907 12.5986 80.6805 12.5986 81.8317 12.5986C81.8317 12.7788 81.8317 12.937 81.8317 13.0996C81.8317 18.1088 81.8317 23.1181 81.8317 28.1274C81.8317 28.7689 81.7482 28.8568 81.1067 28.8568C80.3377 28.8612 79.5731 28.8568 78.7471 28.8568Z" fill="#4C4C4C"/>
<path d="M70.7227 22.8667C71.2236 22.8095 71.7289 22.7524 72.2298 22.6865C72.3924 22.6645 72.555 22.6338 72.7176 22.5986C73.6799 22.3921 73.6843 22.3921 74.2116 23.205C75.3365 24.9319 76.4614 26.6588 77.5862 28.3901C77.6653 28.5131 77.74 28.6405 77.8763 28.8602C77.4676 28.8602 77.1337 28.8602 76.7997 28.8602C76.1054 28.8602 75.4112 28.8734 74.7213 28.8514C74.5675 28.847 74.3522 28.7636 74.2775 28.6493C73.0867 26.7686 71.9135 24.8748 70.7358 22.9853C70.7183 22.9589 70.7271 22.9238 70.7227 22.8667Z" fill="#4C4C4C"/>
<path d="M127.531 22.934C128.48 22.7582 129.39 22.578 130.304 22.4242C130.401 22.4067 130.568 22.4901 130.625 22.578C131.961 24.6169 133.288 26.6602 134.615 28.7034C134.628 28.7254 134.619 28.7605 134.628 28.8616C134.092 28.8616 133.556 28.866 133.024 28.8616C132.426 28.8528 131.723 29.0154 131.253 28.7605C130.8 28.5145 130.585 27.8334 130.273 27.3368C129.359 25.8692 128.445 24.4016 127.531 22.934Z" fill="#4C4C4C"/>
</svg>
