<svg width="132" height="24" viewBox="0 0 132 24" fill="none" xmlns="http://www.w3.org/2000/svg">
<path d="M82.603 12.9984C82.6221 12.9857 82.6436 12.9772 82.6662 12.9737C82.7723 12.9322 82.8714 12.8952 82.9574 12.8591C83.0107 12.8315 83.0661 12.8082 83.1232 12.7894C84.7537 12.0161 86.1202 10.3125 86.1202 8.51899C86.1202 4.75472 83.3214 3.57227 80.0472 3.57227H73.8672C73.9286 3.69395 74.2417 5.02983 74.2417 5.08097V21.6626H77.1028C77.1686 21.6632 77.2338 21.6506 77.2947 21.6256C77.3555 21.6005 77.4108 21.5635 77.4573 21.5167C77.5038 21.4699 77.5405 21.4142 77.5653 21.353C77.5901 21.2918 77.6026 21.2262 77.6018 21.16V13.6015H78.9692C80.9813 13.6015 82.2285 13.1342 82.5338 13.0266C82.5434 13.0081 82.575 13.001 82.5995 12.9984H82.603ZM79.1868 11.1943H77.608V6.04916H79.7384C81.2558 6.04916 82.5504 6.86567 82.5504 8.48813C82.5504 10.5885 81.0988 11.1916 79.1894 11.1916" fill="#9F6B2F"/>
<path d="M65.4433 3.57227H59.7422C59.8027 3.69307 60.1132 5.02983 60.1132 5.08097V21.6626H62.9778C63.1124 21.6643 63.2423 21.6124 63.339 21.5183C63.4358 21.4241 63.4916 21.2954 63.4944 21.16V14.3951H65.5021C68.828 14.3951 71.9926 12.7638 71.9926 8.98721C71.9926 4.90726 69.0043 3.57227 65.4407 3.57227H65.4433ZM65.5705 11.9993H63.504V6.02006H65.5836C67.4676 6.02006 68.4035 7.18399 68.4035 8.98721C68.4035 10.7428 67.3992 11.9993 65.5731 11.9993" fill="#9F6B2F"/>
<path d="M79.8125 14.9746L83.9612 21.6611H87.7941L83.1297 14.457C82.0568 14.7994 80.9381 14.9749 79.8125 14.9773" fill="#9F6B2F"/>
<path d="M88.7677 5.08097V21.6582H91.6621C91.7964 21.6606 91.9262 21.6093 92.0229 21.5155C92.1196 21.4218 92.1753 21.2933 92.1778 21.1583V3.57227H88.4414C88.4528 3.69307 88.7686 5.02895 88.7686 5.08097" fill="#9F6B2F"/>
<path d="M104.969 14.0495C104.629 15.0194 104.559 15.9135 104.312 16.954C104.111 15.9267 103.97 14.9462 103.594 13.9489L99.7753 3.57227H95.0469C95.0548 3.69307 95.3881 5.02895 95.3881 5.08097V21.6477H97.6089C97.7378 21.6362 97.8578 21.5768 97.9454 21.4811C98.033 21.3853 98.0819 21.2602 98.0825 21.1301V9.38489C98.0825 8.78264 97.9623 8.17158 97.9509 7.60372C98.1518 8.19274 98.3263 8.78264 98.5368 9.38489L103.065 21.6626H104.89L109.287 9.38489C109.498 8.78264 109.672 8.19274 109.876 7.60372C109.8 8.19461 109.757 8.78922 109.745 9.38489V21.6477H112.605C112.734 21.6369 112.855 21.5778 112.943 21.482C113.031 21.3862 113.081 21.2607 113.082 21.1301V3.57227H108.74L104.969 14.0495Z" fill="#9F6B2F"/>
<path d="M123.349 3.30655C117.849 3.30655 114.816 7.30625 114.816 12.5907C114.816 17.8337 117.819 21.9375 123.324 21.9375C128.781 21.9375 132 17.9695 132 12.6524C132 7.23219 128.953 3.30566 123.35 3.30566L123.349 3.30655ZM123.426 19.5972C119.56 19.5972 118.438 15.7377 118.438 12.4946C118.438 9.30434 119.587 5.64059 123.382 5.64059C127.26 5.64059 128.367 9.52831 128.367 12.7353C128.367 15.9423 127.218 19.5972 123.426 19.5972Z" fill="#9F6B2F"/>
<path d="M1.33015 12.4428C1.33015 13.7813 2.24409 14.9259 3.82987 14.9259C4.34992 14.932 4.86299 14.8052 5.32093 14.5573V13.3114H3.4229V12.2691H6.52343V15.0687C5.78233 15.7484 4.81277 16.1207 3.8097 16.111C1.61433 16.111 -0.00390625 14.4577 -0.00390625 12.4296C-0.00390625 10.4015 1.581 8.73145 3.78689 8.73145C4.82362 8.73145 5.61563 9.01714 6.36818 9.58941L5.78491 10.5726C5.08324 10.1026 4.48418 9.90861 3.82285 9.90861C2.22391 9.90861 1.33015 11.1449 1.33015 12.4428Z" fill="#9F6B2F"/>
<path d="M13.6791 13.3004C13.801 14.0667 14.1869 14.9758 14.9395 14.9758C15.2305 14.9726 15.5098 14.8596 15.7218 14.6592L16.1788 15.5586C15.7956 15.924 15.2842 16.1224 14.7562 16.1106C13.0792 16.1106 12.5634 14.1892 12.4897 13.3718H11.289V15.9977H9.98828V8.8457H13.0581C14.4702 8.8457 15.2736 9.91882 15.2736 11.1445C15.2728 12.1867 14.6728 13.0465 13.6791 13.3004ZM12.8555 12.3305C13.5265 12.3305 13.9536 11.8393 13.9536 11.1348C13.9536 10.4302 13.5151 9.92852 12.8555 9.92852H11.289V12.3305H12.8555Z" fill="#9F6B2F"/>
<path d="M24.752 8.8457V13.3216C24.752 15.1495 23.4311 16.1106 21.876 16.1106C20.3209 16.1106 19 15.1495 19 13.3216V8.8457H20.3007V13.3216C20.3007 14.4344 21.0226 14.9863 21.8795 14.9863C22.7364 14.9863 23.4583 14.4344 23.4583 13.3216V8.8457H24.752Z" fill="#9F6B2F"/>
<path d="M28.5234 15.9977V8.8457H31.5117C32.9343 8.8457 33.7369 9.90383 33.7369 11.1445C33.7369 12.3851 32.9238 13.3824 31.5117 13.3824H29.8242V15.9977H28.5234ZM31.3091 12.3499C31.9897 12.3499 32.4072 11.8499 32.4072 11.1348C32.4072 10.3985 31.9897 9.9003 31.3091 9.9003H29.8242V12.3516L31.3091 12.3499Z" fill="#9F6B2F"/>
<path d="M40.2306 8.73438C42.2637 8.73438 43.9513 10.3895 43.9513 12.4228C43.9513 14.4562 42.2637 16.1113 40.2306 16.1113C38.1975 16.1113 36.5117 14.4562 36.5117 12.4228C36.5117 10.3895 38.1984 8.73438 40.2306 8.73438ZM40.2306 14.9262C41.5419 14.9262 42.6295 13.868 42.6295 12.4228C42.6295 10.9776 41.5419 9.91948 40.2306 9.91948C38.9194 9.91948 37.8326 10.982 37.8326 12.4228C37.8326 13.8636 38.9202 14.9262 40.2306 14.9262Z" fill="#9F6B2F"/>
<path d="M52.676 0H52.0234V24H52.676V0Z" fill="#9F6B2F"/>
</svg>
