<svg width="22" height="20" viewBox="0 0 22 20" fill="none" xmlns="http://www.w3.org/2000/svg">
<path d="M4.6361 17.5945C3.00738 15.9658 2 13.7158 2 11.2305C2 6.25991 6.02944 2.23047 11 2.23047C15.9706 2.23047 20 6.25991 20 11.2305C20 13.7157 18.9926 15.9657 17.364 17.5944L18.7782 19.0086C20.7688 17.018 22 14.268 22 11.2305C22 5.15534 17.0751 0.230469 11 0.230469C4.92487 0.230469 0 5.15534 0 11.2305C0 14.2681 1.23124 17.0181 3.22189 19.0087L4.6361 17.5945Z" fill="#D9D9D9"/>
<path d="M4.6361 17.5945C3.00738 15.9658 2 13.7158 2 11.2305C2 6.25991 6.02944 2.23047 11 2.23047C15.9706 2.23047 20 6.25991 20 11.2305C20 13.7157 18.9926 15.9657 17.364 17.5944L18.7782 19.0086C20.7688 17.018 22 14.268 22 11.2305C22 5.15534 17.0751 0.230469 11 0.230469C4.92487 0.230469 0 5.15534 0 11.2305C0 14.2681 1.23124 17.0181 3.22189 19.0087L4.6361 17.5945Z" fill="url(#paint0_linear_11384_767)" fill-opacity="0.94"/>
<path d="M4.6361 17.5945C3.00738 15.9658 2 13.7158 2 11.2305C2 6.25991 6.02944 2.23047 11 2.23047C15.9706 2.23047 20 6.25991 20 11.2305C20 13.7157 18.9926 15.9657 17.364 17.5944L18.7782 19.0086C20.7688 17.018 22 14.268 22 11.2305C22 5.15534 17.0751 0.230469 11 0.230469C4.92487 0.230469 0 5.15534 0 11.2305C0 14.2681 1.23124 17.0181 3.22189 19.0087L4.6361 17.5945Z" fill="url(#paint1_linear_11384_767)" fill-opacity="0.94"/>
<path d="M15.9498 16.1802C17.2165 14.9134 18 13.1635 18 11.2305C18 7.36448 14.866 4.23047 11 4.23047C7.13401 4.23047 4 7.36448 4 11.2305C4 13.1635 4.78353 14.9135 6.05031 16.1803L7.46453 14.7661C6.55967 13.8612 6 12.6112 6 11.2305C6 8.46905 8.23858 6.23047 11 6.23047C13.7614 6.23047 16 8.46905 16 11.2305C16 12.6112 15.4404 13.8612 14.5356 14.766L15.9498 16.1802Z" fill="#D9D9D9"/>
<path d="M15.9498 16.1802C17.2165 14.9134 18 13.1635 18 11.2305C18 7.36448 14.866 4.23047 11 4.23047C7.13401 4.23047 4 7.36448 4 11.2305C4 13.1635 4.78353 14.9135 6.05031 16.1803L7.46453 14.7661C6.55967 13.8612 6 12.6112 6 11.2305C6 8.46905 8.23858 6.23047 11 6.23047C13.7614 6.23047 16 8.46905 16 11.2305C16 12.6112 15.4404 13.8612 14.5356 14.766L15.9498 16.1802Z" fill="url(#paint2_linear_11384_767)" fill-opacity="0.94"/>
<path d="M15.9498 16.1802C17.2165 14.9134 18 13.1635 18 11.2305C18 7.36448 14.866 4.23047 11 4.23047C7.13401 4.23047 4 7.36448 4 11.2305C4 13.1635 4.78353 14.9135 6.05031 16.1803L7.46453 14.7661C6.55967 13.8612 6 12.6112 6 11.2305C6 8.46905 8.23858 6.23047 11 6.23047C13.7614 6.23047 16 8.46905 16 11.2305C16 12.6112 15.4404 13.8612 14.5356 14.766L15.9498 16.1802Z" fill="url(#paint3_linear_11384_767)" fill-opacity="0.94"/>
<path d="M13.1213 13.3518C13.6642 12.8089 14 12.0589 14 11.2305C14 9.57361 12.6569 8.23047 11 8.23047C9.34315 8.23047 8 9.57361 8 11.2305C8 12.0589 8.33581 12.809 8.87874 13.3519L10.293 11.9376C10.112 11.7567 10 11.5066 10 11.2305C10 10.6782 10.4477 10.2305 11 10.2305C11.5523 10.2305 12 10.6782 12 11.2305C12 11.5066 11.8881 11.7566 11.7071 11.9376L13.1213 13.3518Z" fill="#D9D9D9"/>
<path d="M13.1213 13.3518C13.6642 12.8089 14 12.0589 14 11.2305C14 9.57361 12.6569 8.23047 11 8.23047C9.34315 8.23047 8 9.57361 8 11.2305C8 12.0589 8.33581 12.809 8.87874 13.3519L10.293 11.9376C10.112 11.7567 10 11.5066 10 11.2305C10 10.6782 10.4477 10.2305 11 10.2305C11.5523 10.2305 12 10.6782 12 11.2305C12 11.5066 11.8881 11.7566 11.7071 11.9376L13.1213 13.3518Z" fill="url(#paint4_linear_11384_767)" fill-opacity="0.94"/>
<path d="M13.1213 13.3518C13.6642 12.8089 14 12.0589 14 11.2305C14 9.57361 12.6569 8.23047 11 8.23047C9.34315 8.23047 8 9.57361 8 11.2305C8 12.0589 8.33581 12.809 8.87874 13.3519L10.293 11.9376C10.112 11.7567 10 11.5066 10 11.2305C10 10.6782 10.4477 10.2305 11 10.2305C11.5523 10.2305 12 10.6782 12 11.2305C12 11.5066 11.8881 11.7566 11.7071 11.9376L13.1213 13.3518Z" fill="url(#paint5_linear_11384_767)" fill-opacity="0.94"/>
<defs>
<linearGradient id="paint0_linear_11384_767" x1="1.2375" y1="9.61959" x2="22.1776" y2="9.61959" gradientUnits="userSpaceOnUse">
<stop stop-color="#ffffff"/>
<stop offset="1" stop-color="#ffffff"/>
</linearGradient>
<linearGradient id="paint1_linear_11384_767" x1="-12.5267" y1="-9.84385" x2="17.2084" y2="23.9598" gradientUnits="userSpaceOnUse">
<stop stop-color="#ffffff"/>
<stop offset="0.860578" stop-color="#ffffff"/>
</linearGradient>
<linearGradient id="paint2_linear_11384_767" x1="1.2375" y1="9.61959" x2="22.1776" y2="9.61959" gradientUnits="userSpaceOnUse">
<stop stop-color="#ffffff"/>
<stop offset="1" stop-color="#ffffff"/>
</linearGradient>
<linearGradient id="paint3_linear_11384_767" x1="-12.5267" y1="-9.84385" x2="17.2084" y2="23.9598" gradientUnits="userSpaceOnUse">
<stop stop-color="#ffffff"/>
<stop offset="0.860578" stop-color="#ffffff"/>
</linearGradient>
<linearGradient id="paint4_linear_11384_767" x1="1.2375" y1="9.61959" x2="22.1776" y2="9.61959" gradientUnits="userSpaceOnUse">
<stop stop-color="#ffffff"/>
<stop offset="1" stop-color="#ffffff"/>
</linearGradient>
<linearGradient id="paint5_linear_11384_767" x1="-12.5267" y1="-9.84385" x2="17.2084" y2="23.9598" gradientUnits="userSpaceOnUse">
<stop stop-color="#ffffff"/>
<stop offset="0.860578" stop-color="#ffffff"/>
</linearGradient>
</defs>
</svg>
