<svg width="25" height="24" viewBox="0 0 25 24" fill="none" xmlns="http://www.w3.org/2000/svg">
<path fill-rule="evenodd" clip-rule="evenodd" d="M0.5 3C0.5 1.34315 1.84315 0 3.5 0H21.5C23.1569 0 24.5 1.34315 24.5 3V21C24.5 22.6569 23.1569 24 21.5 24H3.5C1.84315 24 0.5 22.6569 0.5 21V3Z" fill="#313338"/>
<path d="M9.6039 10.6667V8.66667C9.6039 7.194 10.8599 6 12.4091 6C13.9583 6 15.2143 7.194 15.2143 8.66667V10.6667M15.2143 10.6667H8.9026C8.12766 10.6667 7.5 11.2633 7.5 12V16.6667C7.5 17.4033 8.12766 18 8.9026 18H15.9156C16.6905 18 17.3182 17.4033 17.3182 16.6667V12C17.3182 11.2633 16.6905 10.6667 15.9156 10.6667H15.2143Z" stroke="white" stroke-width="1.5" stroke-linecap="round" stroke-linejoin="round"/>
</svg>
